<svg width="194" height="317" viewBox="0 0 194 317" fill="none" xmlns="http://www.w3.org/2000/svg">
<path d="M138.758 262.041C143.54 257.313 152.647 258.026 159.146 264.597C165.645 271.169 166.257 280.284 161.475 285.013C156.693 289.742 147.585 289.029 141.086 282.457C134.587 275.885 133.976 266.77 138.758 262.041Z" fill="#FFFAEB" stroke="#7D5F4A" stroke-width="3"/>
<path d="M42.8916 275.957L42.6914 275.609C38.4743 268.283 36.0918 259.965 36.0918 251.146V236.272L33.9629 237.256L31.5937 238.351C23.5322 242.074 13.7524 239.12 9.73338 231.977C5.76996 224.932 8.78691 216.206 16.7812 212.513L35.0683 204.065C35.2228 203.994 35.3757 203.926 35.5273 203.861L36.3252 203.521L36.4277 202.658C36.4695 202.305 36.5142 201.953 36.5635 201.603L36.7197 200.499L35.707 200.031C16.8771 191.34 5.61929 178.933 5.61913 165.592C5.61927 158.513 8.76655 151.718 14.5674 145.568L14.9844 145.127L14.9756 144.52C14.9718 144.23 14.9717 143.937 14.9717 143.64C14.972 122.834 24.6269 104.038 40.165 90.7471L41.3887 89.7002L40.2588 88.5547C33.4547 81.6481 26.6587 72.775 20.7109 62.5859C12.4416 48.4196 7.43606 34.4945 5.97752 23.4727C5.24766 17.9571 5.41724 13.2566 6.44139 9.64355C7.46038 6.04903 9.28625 3.63882 11.8232 2.42285L11.8223 2.42188C14.3865 1.19302 17.6924 1.17674 21.6318 2.46484C25.566 3.75124 29.988 6.29809 34.623 9.95996C43.8877 17.2795 53.7823 28.8818 62.0498 43.0449C67.9016 53.0698 72.1239 62.9863 74.6084 71.8447L74.9902 73.209L76.375 72.9043C82.4942 71.558 88.889 70.8428 95.4697 70.8428C103.263 70.8428 110.794 71.846 117.917 73.7129L119.357 74.0898L119.745 72.6533C122.196 63.5926 126.495 53.3767 132.526 43.0449C140.794 28.8821 150.688 17.2795 159.952 9.95996C164.587 6.29818 169.009 3.75132 172.943 2.46484C176.883 1.17669 180.189 1.19407 182.753 2.42285C185.29 3.63873 187.115 6.04913 188.134 9.64355C189.158 13.2565 189.329 17.957 188.6 23.4727C187.141 34.4945 182.136 48.4195 173.866 62.5859C167.425 73.6204 159.989 83.1089 152.628 90.2285L151.48 91.3379L152.659 92.4141C167.017 105.523 175.879 123.511 175.966 143.346L175.969 143.968L176.411 144.405C182.936 150.856 186.494 158.065 186.494 165.592C186.494 179.463 174.317 192.328 154.153 201.04L153.126 201.483L153.259 202.595C153.274 202.72 153.287 202.831 153.3 202.943L153.395 203.783L154.161 204.138L172.29 212.513C180.285 216.206 183.302 224.932 179.339 231.977C175.32 239.12 165.54 242.074 157.479 238.351H157.478L155.734 237.544L153.604 236.56V251.146C153.604 260.01 151.197 268.368 146.939 275.721L146.737 276.069V298.426C146.737 307.72 138.374 315.5 127.738 315.5C119.282 315.5 112.216 310.553 109.717 303.851L109.268 302.645L108.007 302.905C103.778 303.78 99.374 304.243 94.8486 304.243C90.3005 304.243 85.8743 303.776 81.626 302.893L80.3633 302.63L79.914 303.838C77.4189 310.547 70.3511 315.5 61.8906 315.5C51.2549 315.5 42.8916 307.72 42.8916 298.426V275.957Z" fill="#FFFAEB" stroke="#7D5F4A" stroke-width="3"/>
<path d="M92.1905 165.967C94.115 169.301 98.9262 169.301 100.851 165.967L101.164 165.424C103.089 162.091 100.683 157.924 96.8341 157.924H96.2071C92.3581 157.924 89.9525 162.091 91.877 165.424L92.1905 165.967Z" fill="#745946"/>
<path d="M80.7857 169.422C81.8884 172.866 83.595 174.547 84.9586 175.248C87.3614 176.483 90.5029 175.207 91.5276 174.692C92.6253 174.141 93.5732 173.249 94.5556 172.456C95.2823 171.383 95.6251 170.451 95.7095 169.753C95.794 169.424 95.9628 169.147 96.1368 168.862" stroke="#745946" stroke-width="5" stroke-linecap="round"/>
<path d="M112.255 169.422C111.153 172.866 109.446 174.547 108.083 175.248C105.68 176.483 102.538 175.207 101.514 174.692C100.416 174.141 99.468 173.249 98.4855 172.456C97.7589 171.383 97.4161 170.451 97.3316 169.753C97.2472 169.424 97.0783 169.147 96.9044 168.862" stroke="#745946" stroke-width="5" stroke-linecap="round"/>
<ellipse cx="160.048" cy="42.7211" rx="15.0794" ry="32.6455" transform="rotate(29.7952 160.048 42.7211)" fill="#FFA495"/>
<ellipse cx="15.0794" cy="32.6455" rx="15.0794" ry="32.6455" transform="matrix(-0.867807 0.496901 0.496901 0.867807 31.7373 6.90799)" fill="#FFA495"/>
<ellipse cx="130.293" cy="142.381" rx="14.1998" ry="16.5024" fill="#7D5F4A"/>
<ellipse cx="126.071" cy="135.09" rx="4.60533" ry="6.14044" fill="white"/>
<ellipse cx="135.282" cy="150.441" rx="2.30266" ry="3.83777" fill="white"/>
<ellipse cx="14.1998" cy="16.5024" rx="14.1998" ry="16.5024" transform="matrix(-1 0 0 1 77.7155 125.879)" fill="#7D5F4A"/>
<ellipse cx="4.60533" cy="6.14044" rx="4.60533" ry="6.14044" transform="matrix(-1 0 0 1 72.3426 128.949)" fill="white"/>
<ellipse cx="2.30266" cy="3.83777" rx="2.30266" ry="3.83777" transform="matrix(-1 0 0 1 60.8293 146.603)" fill="white"/>
<ellipse cx="146.795" cy="169.246" rx="16.1186" ry="13.4322" transform="rotate(12.3362 146.795 169.246)" fill="#FE9B90" fill-opacity="0.4"/>
<ellipse cx="16.1186" cy="13.4322" rx="16.1186" ry="13.4322" transform="matrix(-0.976911 0.213647 0.213647 0.976911 59.1225 152.68)" fill="#FE9B90" fill-opacity="0.4"/>
<path d="M147.302 121.732C145.722 118.083 143.223 115.065 140.068 112.994C136.912 110.923 133.215 109.875 129.362 109.959L129.195 112.199C132.68 112.123 136.025 113.072 138.88 114.945C141.735 116.819 143.996 119.549 145.425 122.851L147.302 121.732Z" fill="#745946"/>
<path d="M46.5065 121.732C48.0868 118.083 50.5854 115.065 53.7411 112.994C56.8969 110.923 60.5941 109.875 64.4463 109.959L64.6137 112.199C61.1285 112.123 57.7837 113.072 54.9287 114.945C52.0737 116.819 49.8132 119.549 48.3835 122.851L46.5065 121.732Z" fill="#745946"/>
<path d="M136.835 62.1168C142.576 71.2406 136.459 83.1755 125.725 83.7948V83.7948C114.806 84.4248 107.325 72.9132 112.32 63.1681V63.1681C117.315 53.4229 130.996 52.8362 136.835 62.1168V62.1168Z" fill="#FFB0DA"/>
<path d="M152.733 70.5763C142.012 71.6964 136.403 83.8784 142.546 92.7031V92.7031C148.793 101.679 162.467 100.454 167.047 90.5069V90.5069C171.627 80.5601 163.639 69.437 152.733 70.5763V70.5763Z" fill="#FFB0DA"/>
<ellipse cx="139.526" cy="77.8102" rx="7.37892" ry="7.87428" transform="rotate(25.9298 139.526 77.8102)" fill="#555353"/>
<path d="M56.2722 62.1168C50.5319 71.2406 56.649 83.1755 67.3829 83.7948V83.7948C78.3013 84.4248 85.7823 72.9132 80.7876 63.1681V63.1681C75.7928 53.4229 62.1111 52.8362 56.2722 62.1168V62.1168Z" fill="#FFB0DA"/>
<path d="M40.3742 70.5763C51.0951 71.6964 56.7041 83.8784 50.562 92.7031V92.7031C44.3144 101.679 30.6404 100.454 26.0605 90.5069V90.5069C21.4806 80.5601 29.4689 69.437 40.3742 70.5763V70.5763Z" fill="#FFB0DA"/>
<ellipse cx="7.37892" cy="7.87428" rx="7.37892" ry="7.87428" transform="matrix(-0.89933 0.43727 0.43727 0.89933 56.7742 67.5021)" fill="#555353"/>
</svg>
